#!OML:ASF X:\für Bonn\!DataBase\2005_08_10_Bjorn_Final\c3d\bjorn.ASF
:FULLY-SPECIFIED
:DEGREES
98
root 0.943322 10.0047 4.10294 -183.583 -0.187907 -179.322
lowerback 29.3289 1.26405 5.93012
upperback 11.9887 -0.20873 -1.3629
thorax -2.49104 -1.24088 -4.79139
lowerneck -25.5439 -2.32673 2.23475
upperneck 1.23089 -4.78572 1.16526
head 4.24122 -2.64164 -0.500429
rclavicle -2.98177e-015 4.96962e-016
rhumerus 74.1789 -2.84724 -56.4345
rradius 18.7732
rwrist 28.0405
rhand -13.406 14.1782
rfingers 7.12502
rthumb 12.7018 -15.4155
lclavicle -2.98177e-015 4.96962e-016
lhumerus 83.4871 -6.12286 49.0546
lradius 12.1433
lwrist -29.1161
lhand -30.1116 -13.1294
lfingers 7.12502
lthumb -3.42524 16.8228
rfemur -76.6923 -39.6324 9.32459
rtibia 138.793
rfoot -37.4827 36.748
rtoes -33.8627
lfemur -76.7671 30.0266 -16.8673
ltibia 141.011
lfoot -33.6468 -21.8619
ltoes -31.3819
99
root 0.936997 10.1751 4.11566 -183 -0.213992 -179.426
lowerback 28.8353 1.25302 5.79967
upperback 11.7867 -0.161983 -1.3799
thorax -2.49882 -1.17902 -4.74685
lowerneck -25.5654 -2.35141 2.11605
upperneck 1.18581 -4.79443 1.23313
head 4.23402 -2.6457 -0.461275
rclavicle -7.30534e-015 -1.98785e-016
rhumerus 73.9139 -2.79704 -56.5307
rradius 18.5858
rwrist 29.1041
rhand -13.2247 14.1869
rfingers 7.12502
rthumb 12.8766 -15.3959
lclavicle -7.30534e-015 -1.98785e-016
lhumerus 83.2686 -6.02943 50.8414
lradius 12.388
lwrist -30.8528
lhand -29.6828 -13.4228
lfingers 7.12502
lthumb -3.01109 16.5357
rfemur -76.7492 -36.4234 10.0473
rtibia 137.528
rfoot -36.2345 35.3555
rtoes -33.3657
lfemur -76.679 26.8996 -17.4677
ltibia 139.72
lfoot -32.9696 -20.4175
ltoes -31.7435
100
root 0.931553 10.3495 4.12533 -182.447 -0.236894 -179.513
lowerback 28.3242 1.24539 5.6821
upperback 11.5899 -0.110274 -1.3933
thorax -2.48914 -1.11483 -4.70691
lowerneck -25.5754 -2.38533 2.00813
upperneck 1.16692 -4.81405 1.29474
head 4.23321 -2.65329 -0.426975
rclavicle -1.64494e-014 5.56597e-015
rhumerus 73.6469 -2.73247 -56.4098
rradius 18.4358
rwrist 29.4956
rhand -13.0448 14.0849
rfingers 7.12502
rthumb 13.05 -15.4869
lclavicle -1.64494e-014 5.56597e-015
lhumerus 83.0641 -5.94073 52.4759
lradius 12.6668
lwrist -32.3669
lhand -29.1332 -13.5958
lfingers 7.12502
lthumb -2.48039 16.3696
rfemur -76.6217 -33.5835 10.6251
rtibia 136.226
rfoot -35.3258 33.9612
rtoes -33.0795
lfemur -76.4808 24.2197 -17.9553
ltibia 138.394
lfoot -32.46 -18.9592
ltoes -32.3453
101
root 0.925327 10.5252 4.13343 -182.026 -0.259807 -179.596
lowerback 27.9183 1.23053 5.60584
upperback 11.4071 -0.0683918 -1.42386
thorax -2.50869 -1.06073 -4.70679
lowerneck -25.5571 -2.42252 1.88373
upperneck 1.17665 -4.82992 1.38915
head 4.23905 -2.65413 -0.379081
rclavicle -1.1778e-014 1.37161e-014
rhumerus 73.3839 -2.66684 -56.1276
rradius 18.2988
rwrist 29.3161
rhand -12.9057 13.8652
rfingers 7.12502
rthumb 13.1841 -15.6979
lclavicle -1.1778e-014 1.37161e-014
lhumerus 82.9659 -5.88036 53.6409
lradius 12.8666
lwrist -33.3019
lhand -28.6479 -13.734
lfingers 7.12502
lthumb -2.0117 16.2362
rfemur -76.1905 -31.1207 11.0081
rtibia 134.886
rfoot -34.6698 32.6966
rtoes -32.8515
lfemur -76.0198 21.9327 -18.2908
ltibia 137.029
lfoot -32.0172 -17.8355
ltoes -32.5494
102
root 0.920074 10.7015 4.13873 -181.662 -0.291301 -179.693
lowerback 27.4831 1.2371 5.49896
upperback 11.273 -0.0231942 -1.4311
thorax -2.45867 -1.00966 -4.66423
lowerneck -25.6319 -2.48773 1.6924
upperneck 1.2479 -4.86773 1.50921
head 4.27947 -2.66262 -0.317218
rclavicle 1.33186e-014 -6.26172e-015
rhumerus 73.1569 -2.61046 -55.5044
rradius 18.2114
rwrist 28.4753
rhand -12.8402 13.5357
rfingers 7.12502
rthumb 13.2472 -16.0233
lclavicle 1.33186e-014 -6.26172e-015
lhumerus 83.0254 -5.80589 54.2631
lradius 12.9391
lwrist -33.5818
lhand -28.3066 -13.6316
lfingers 7.12502
lthumb -1.68206 16.3415
rfemur -75.6195 -29.0254 11.2761
rtibia 133.535
rfoot -34.1713 31.5884
rtoes -32.5049
lfemur -75.4619 19.9364 -18.5833
ltibia 135.653
lfoot -31.6634 -16.7661
ltoes -32.7237
103
root 0.914343 10.8814 4.13992 -181.337 -0.302781 -179.756
lowerback 27.0188 1.24289 5.4271
upperback 11.1442 0.0273236 -1.43931
thorax -2.38549 -0.954684 -4.64406
lowerneck -25.6566 -2.54939 1.50077
upperneck 1.35084 -4.89461 1.65217
head 4.32406 -2.66068 -0.246303
rclavicle 1.3418e-015 7.55382e-015
rhumerus 72.94 -2.53317 -54.6127
rradius 18.1363
rwrist 27.1206
rhand -12.8222 13.1467
rfingers 7.12502
rthumb 13.2645 -16.4112
lclavicle 1.3418e-015 7.55382e-015
lhumerus 83.188 -5.74575 54.4213
lradius 12.8917
lwrist -33.2506
lhand -28.1078 -13.4148
lfingers 7.12502
lthumb -1.49007 16.5598
rfemur -74.9259 -27.0871 11.5304
rtibia 132.135
rfoot -33.8145 30.4805
rtoes -32.3151
lfemur -74.7874 18.2141 -18.7865
ltibia 134.238
lfoot -31.3422 -15.9004
ltoes -32.7204
104
root 0.909963 11.0638 4.13632 -181.022 -0.351616 -179.817
lowerback 26.4918 1.2336 5.35826
upperback 11.0266 0.0559927 -1.46079
thorax -2.27085 -0.908373 -4.63365
lowerneck -25.667 -2.60842 1.35583
upperneck 1.49468 -4.92685 1.78881
head 4.37883 -2.65842 -0.185326
rclavicle -5.91384e-015 2.33572e-015
rhumerus 72.7338 -2.46148 -53.4867
rradius 18.0938
rwrist 25.4308
rhand -12.8414 12.7129
rfingers 7.12502
rthumb 13.2461 -16.8462
lclavicle -5.91384e-015 2.33572e-015
lhumerus 83.3739 -5.687 54.4385
lradius 12.8578
lwrist -32.712
lhand -28.0117 -12.9694
lfingers 7.12502
lthumb -1.39726 17.0057
rfemur -74.1489 -25.421 11.751
rtibia 130.702
rfoot -33.6521 29.3707
rtoes -32.3142
lfemur -74.035 16.5902 -18.9641
ltibia 132.786
lfoot -31.0796 -15.0482
ltoes -32.6925
105
root 0.905701 11.2491 4.12868 -180.726 -0.420933 -179.879
lowerback 25.9091 1.23593 5.27956
upperback 10.943 0.0881459 -1.45995
thorax -2.08983 -0.861586 -4.59367
lowerneck -25.7484 -2.66891 1.21216
upperneck 1.65128 -4.96321 1.8849
head 4.44631 -2.66186 -0.13927
rclavicle -1.91827e-014 8.44835e-016
rhumerus 72.6161 -2.48538 -52.5621
rradius 17.9997
rwrist 24.0341
rhand -12.9726 12.3585
rfingers 7.12502
rthumb 13.1196 -17.2088
lclavicle -1.91827e-014 8.44835e-016
lhumerus 83.6362 -5.60865 54.2834
lradius 12.8081
lwrist -31.871
lhand -28.0373 -12.4316
lfingers 7.12502
lthumb -1.42195 17.5434
rfemur -73.2907 -23.9616 11.928
rtibia 129.237
rfoot -33.5 28.4447
rtoes -32.0789
lfemur -73.2381 15.1067 -19.1217
ltibia 131.311
lfoot -30.8541 -14.2884
ltoes -32.5441
